<?xml version="1.0" encoding="UTF-8"?><svg id="Layer_2" xmlns="http://www.w3.org/2000/svg" viewBox="0 0 400 400"><defs><style>.cls-1{fill:#89c659;}</style></defs><g id="Layer_1-2"><g><path class="cls-1" d="M155.44,183.16c-13.71,0-24.36,12.2-24.36,27.09s11.04,26.98,24.41,26.98,24.15-12.1,24.38-26.98c.23-14.88-10.72-27.09-24.43-27.09Z"/><path class="cls-1" d="M245.52,183.16c-13.73,0-24.39,12.2-24.39,27.09s11,26.98,24.39,26.98,24.13-12.1,24.36-26.98c.23-14.88-10.64-27.09-24.36-27.09Z"/><path class="cls-1" d="M200,0C89.54,0,0,89.54,0,200s89.54,200,200,200,200-89.54,200-200S310.46,0,200,0Zm134.85,268.12c-20.73,15.28-43.94,26.89-68.61,34.32-5.56-7.44-10.47-15.33-14.69-23.6,8.03-2.99,15.79-6.69,23.17-11.03-1.92-1.3-3.82-2.74-5.67-4.25-21.45,10.06-44.85,15.27-68.55,15.27s-47.1-5.22-68.55-15.27c-1.83,1.4-3.73,2.85-5.67,4.25,7.37,4.34,15.11,8.03,23.13,11.01-4.22,8.27-9.13,16.17-14.69,23.62-24.66-7.45-47.85-19.07-68.57-34.34-4.8-50.2,4.8-101.12,40.18-153.33,17.82-8.13,36.63-13.91,55.95-17.2,2.64,4.71,5.03,9.56,7.16,14.52,20.57-3.09,41.48-3.09,62.05,0,2.13-4.96,4.52-9.81,7.16-14.52,19.31,3.26,38.1,9.03,55.91,17.16,30.67,44.73,45.91,95.19,40.29,153.4Z"/></g></g></svg>