<?xml version="1.0" encoding="UTF-8"?><svg id="Layer_2" xmlns="http://www.w3.org/2000/svg" viewBox="0 0 293.77 293.68"><defs><style>.cls-1{fill:#fff;}.cls-2{fill:#89c659;}.cls-3{fill:#bfcfda;}</style></defs><g id="Layer_1-2"><g id="etherscan-logo-light-circle"><path id="Path_1" class="cls-1" d="M61.05,139.82c0-6.88,5.57-12.45,12.45-12.45,.02,0,.04,0,.06,0l20.74,.07c6.89,0,12.47,5.58,12.47,12.47h0v78.41c2.34-.69,5.33-1.43,8.61-2.2,4.69-1.1,8.01-5.29,8.01-10.11V108.74c0-6.89,5.58-12.47,12.47-12.47h20.78c6.89,0,12.47,5.58,12.47,12.47v90.28s5.2-2.11,10.27-4.24c3.85-1.63,6.35-5.4,6.35-9.58V77.57c0-6.88,5.58-12.47,12.46-12.47h20.78c6.89,0,12.47,5.58,12.47,12.47v88.62c18.01-13.05,36.27-28.76,50.76-47.64,4.27-5.57,5.47-12.9,3.18-19.54C265.3,40.48,210.62,.87,148.74,.01,67.3-1.08,0,65.4,0,146.85c-.08,25.77,6.65,51.11,19.5,73.45,3.62,6.24,10.52,9.82,17.71,9.17,3.93-.35,8.83-.83,14.64-1.52,5.24-.6,9.2-5.03,9.21-10.31v-77.82"/><path id="Path_2" class="cls-3" d="M60.6,265.58c65.57,47.7,157.38,33.21,205.08-32.35,18.26-25.1,28.1-55.35,28.09-86.39,0-3.38-.16-6.72-.38-10.05-53.64,80-152.69,117.4-232.79,128.79"/></g><g id="etherscan-logo-light-circle-2"><path id="Path_1-2" class="cls-2" d="M61.05,139.82c0-6.88,5.57-12.45,12.45-12.45,.02,0,.04,0,.06,0l20.74,.07c6.89,0,12.47,5.58,12.47,12.47h0v78.41c2.34-.69,5.33-1.43,8.61-2.2,4.69-1.1,8.01-5.29,8.01-10.11V108.74c0-6.89,5.58-12.47,12.47-12.47h20.78c6.89,0,12.47,5.58,12.47,12.47v90.28s5.2-2.11,10.27-4.24c3.85-1.63,6.35-5.4,6.35-9.58V77.57c0-6.88,5.58-12.47,12.46-12.47h20.78c6.89,0,12.47,5.58,12.47,12.47v88.62c18.01-13.05,36.27-28.76,50.76-47.64,4.27-5.57,5.47-12.9,3.18-19.54C265.3,40.48,210.62,.87,148.74,.01,67.3-1.08,0,65.4,0,146.85c-.08,25.77,6.65,51.11,19.5,73.45,3.62,6.24,10.52,9.82,17.71,9.17,3.93-.35,8.83-.83,14.64-1.52,5.24-.6,9.2-5.03,9.21-10.31v-77.82"/><path id="Path_2-2" class="cls-2" d="M60.6,265.58c65.57,47.7,157.38,33.21,205.08-32.35,18.26-25.1,28.1-55.35,28.09-86.39,0-3.38-.16-6.72-.38-10.05-53.64,80-152.69,117.4-232.79,128.79"/></g></g></svg>