<?xml version="1.0" encoding="UTF-8"?><svg id="Layer_2" xmlns="http://www.w3.org/2000/svg" viewBox="0 0 90 90"><defs><style>.cls-1{fill:#89c659;}</style></defs><g id="Layer_1-2"><path class="cls-1" d="M45,0C20.15,0,0,20.15,0,45s20.15,45,45,45,45-20.15,45-45S69.86,0,45,0ZM22.2,46.51l.19-.31,11.71-18.31c.17-.27,.57-.24,.7,.05,1.96,4.38,3.64,9.83,2.85,13.23-.34,1.4-1.26,3.29-2.3,5.03-.13,.25-.28,.5-.44,.74-.07,.11-.2,.18-.33,.18h-12.04c-.32,0-.51-.35-.34-.61Zm52.18,6.3c0,.17-.1,.31-.25,.38-.91,.39-4.01,1.81-5.3,3.61-3.29,4.58-5.81,11.13-11.43,11.13h-23.45c-8.31,0-15.05-6.76-15.05-15.1v-.27c0-.22,.18-.4,.4-.4h13.07c.26,0,.45,.24,.43,.49-.09,.85,.06,1.72,.47,2.51,.78,1.58,2.39,2.56,4.12,2.56h6.47v-5.05h-6.4c-.33,0-.52-.38-.33-.65,.07-.11,.15-.22,.23-.34,.61-.86,1.47-2.2,2.33-3.72,.59-1.03,1.16-2.12,1.61-3.22,.09-.2,.17-.4,.24-.6,.12-.35,.25-.68,.35-1.01,.09-.28,.17-.57,.24-.84,.22-.93,.31-1.92,.31-2.95,0-.4-.02-.82-.06-1.23-.02-.44-.07-.88-.13-1.32-.04-.39-.11-.77-.18-1.17-.09-.59-.22-1.17-.37-1.76l-.05-.22c-.11-.4-.2-.79-.33-1.19-.37-1.26-.79-2.49-1.23-3.64-.16-.46-.35-.9-.53-1.34-.27-.66-.55-1.26-.8-1.83-.13-.26-.24-.49-.35-.74-.12-.27-.25-.55-.38-.8-.09-.2-.2-.38-.27-.57l-.79-1.46c-.11-.2,.07-.43,.29-.37l4.95,1.34h.01s.01,0,.02,0l.65,.18,.72,.2,.26,.07v-2.94c0-1.42,1.14-2.57,2.54-2.57,.7,0,1.34,.29,1.8,.75s.74,1.1,.74,1.82v4.36l.53,.15s.08,.03,.12,.06c.13,.1,.31,.24,.55,.42,.18,.15,.38,.33,.62,.51,.48,.38,1.04,.88,1.67,1.45,.17,.14,.33,.29,.48,.44,.8,.75,1.71,1.63,2.57,2.6,.24,.27,.48,.55,.72,.84,.24,.3,.49,.59,.72,.88,.29,.39,.61,.79,.88,1.21,.13,.2,.28,.4,.4,.6,.35,.53,.66,1.08,.96,1.63,.12,.25,.25,.53,.37,.8,.33,.74,.59,1.48,.75,2.23,.05,.16,.09,.34,.11,.49v.04c.06,.22,.07,.46,.09,.7,.07,.77,.04,1.53-.13,2.31-.07,.33-.16,.64-.27,.97-.11,.31-.22,.64-.37,.95-.28,.64-.61,1.29-.99,1.89-.12,.22-.27,.46-.42,.68-.16,.24-.33,.46-.48,.68-.2,.28-.42,.57-.64,.83-.2,.27-.4,.55-.62,.79-.31,.37-.61,.71-.92,1.04-.18,.22-.38,.44-.59,.64-.2,.22-.4,.42-.59,.61-.31,.31-.57,.55-.79,.75l-.51,.47c-.07,.06-.17,.1-.27,.1h-3.94v5.05h4.96c1.11,0,2.16-.39,3.01-1.11,.29-.25,1.56-1.35,3.07-3.01,.05-.06,.12-.1,.19-.12l13.69-3.96c.25-.07,.51,.12,.51,.39v2.9Z"/></g></svg>